%
M48
M72
T01C0.0320
T02C0.0400
%
T01
X1600Y3100
X4100Y3100
X6600Y3100
X9100Y3100
X11600Y3100
X11600Y6100
X9100Y6100
X6600Y6100
X4100Y6100
X1600Y6100
X1100Y12600
X2100Y12600
X3600Y12600
X4600Y12600
X6100Y12600
X7100Y12600
X8600Y12600
X9600Y12600
X11100Y12600
X12100Y12600
T02
X11600Y10170
X11600Y9100
X11600Y8030
X9100Y8030
X9100Y9100
X9100Y10170
X6600Y10170
X6600Y9100
X6600Y8030
X4100Y8030
X4100Y9100
X4100Y10170
X1600Y10170
X1600Y9100
X1600Y8030
M30
